<svg width="70" height="34" viewBox="0 0 70 34" fill="none" xmlns="http://www.w3.org/2000/svg">
<path d="M9.28 10.392L7.888 11.192V11.224L9.28 12.024V15.928L7.424 17H1.36V5.8H7.424L9.28 6.872V10.392ZM3.6 12.168V15.08H7.04V12.168H3.6ZM3.6 7.72V10.248H7.04V7.72H3.6ZM20.7206 16.008L18.8646 17.08H13.8566L12.0006 16.008V6.792L13.8566 5.72H18.8646L20.7206 6.792V16.008ZM14.2406 7.64V15.16H18.4806V7.64H14.2406ZM31.9341 17H29.4701L27.0701 12.776H25.6781V17H23.4381V5.8H29.5021L31.3581 6.872V11.704L29.5021 12.776L31.9341 17ZM25.6781 7.72V10.856H29.1181V7.72H25.6781ZM34.0788 17V5.8H36.3188V17H34.0788ZM41.2719 9.752V17H39.0319V5.8H41.1279L45.9599 13.048H45.9919V5.8H48.2319V17H46.1359L41.3039 9.752H41.2719ZM54.9538 13.08V11.16H59.0338V16.008L57.1778 17.08H52.6498L50.7938 16.008V6.792L52.6498 5.72H57.1778L59.0338 6.792V9.08H56.7938V7.64H53.0338V15.16H56.7938V13.08H54.9538Z" fill="white"/>
<path d="M31.2435 23.8559C31.2501 23.7366 31.2523 23.6416 31.2501 23.5709C31.2467 23.4925 31.208 23.4151 31.134 23.3389C31.1472 23.2107 31.1566 23.1107 31.1621 23.0389C31.1754 22.966 31.1654 22.8688 31.1322 22.7473C31.173 22.5362 31.2531 22.3511 31.3724 22.192C31.4994 22.0318 31.6414 21.8931 31.7982 21.7759C31.954 21.6511 32.1202 21.5444 32.297 21.456C32.4727 21.3598 32.6384 21.2769 32.7941 21.2073C32.7897 21.1763 32.772 21.1631 32.7411 21.1675C32.7102 21.1719 32.6997 21.1537 32.7096 21.1128C33.1162 20.9757 33.5177 20.8039 33.9143 20.5972C34.3187 20.3894 34.7329 20.1959 35.1572 20.0168C35.5814 19.8378 36.0239 19.7034 36.4846 19.6138C36.9442 19.5165 37.4397 19.5048 37.9711 19.5787C38.0153 19.6671 38.0706 19.7499 38.1369 19.8273C38.2032 19.9046 38.2695 19.9819 38.3358 20.0593C38.4088 20.1277 38.474 20.1973 38.5314 20.268C38.5889 20.3387 38.6276 20.4161 38.6475 20.5C38.7525 20.5718 38.8392 20.6541 38.9078 20.7469C38.9829 20.8309 39.0128 20.9568 38.9973 21.1247C38.9211 21.1988 38.841 21.2734 38.7571 21.3485C38.6731 21.4237 38.5847 21.4955 38.4919 21.564C38.1318 21.5288 37.7793 21.5476 37.4346 21.6206C37.0899 21.6936 36.7806 21.7655 36.5066 21.8362C36.4082 21.7556 36.3016 21.7275 36.1867 21.7518C36.0707 21.7684 35.9497 21.8054 35.8238 21.8629C35.7045 21.9116 35.5857 21.9641 35.4675 22.0204C35.3482 22.0691 35.2333 22.0934 35.1228 22.0934C35.0488 22.1829 34.9444 22.2531 34.8096 22.304C34.6737 22.3471 34.5296 22.3874 34.3771 22.425C34.3749 22.4648 34.3865 22.4908 34.4119 22.5029C34.4373 22.5151 34.4456 22.5455 34.4368 22.5941C34.5009 22.6559 34.5816 22.6957 34.6788 22.7133C34.7749 22.7233 34.871 22.7332 34.9672 22.7431C35.071 22.7519 35.1649 22.774 35.2489 22.8093C35.3318 22.8369 35.3915 22.8955 35.4279 22.985C35.5683 22.9728 35.6937 22.9943 35.8042 23.0495C35.9135 23.097 36.0097 23.1622 36.0926 23.245C36.1754 23.3279 36.2401 23.4212 36.2865 23.5251C36.3318 23.6212 36.3567 23.7123 36.3612 23.7985C36.4032 23.8714 36.4385 23.8979 36.4672 23.878C36.5037 23.857 36.549 23.8703 36.6032 23.9178C36.6507 24.0294 36.738 24.1431 36.8651 24.2591C36.9988 24.3663 37.1071 24.4889 37.19 24.627C37.2386 24.8568 37.2801 25.0639 37.3144 25.2484C37.3564 25.4318 37.3515 25.618 37.2996 25.8069C37.2168 26.166 37.0711 26.4986 36.8623 26.8047C36.6536 27.1108 36.4056 27.3909 36.1184 27.6451C35.8378 27.8904 35.5346 28.1153 35.2087 28.3198C34.8817 28.5165 34.5552 28.6895 34.2293 28.8388C34.1973 28.8354 34.1586 28.841 34.1133 28.8554C34.0758 28.8686 34.0647 28.8465 34.0802 28.7891C34.0194 28.8609 33.9437 28.9112 33.8531 28.9399C33.7703 28.9676 33.6742 28.9853 33.5648 28.993C33.4642 29.0074 33.3593 29.0185 33.2499 29.0262C33.1483 29.0329 33.0483 29.0511 32.95 29.081C32.8792 29.028 32.8124 28.9744 32.7494 28.9203C32.6941 28.865 32.645 28.7971 32.6018 28.7165C32.5621 28.7143 32.5394 28.6938 32.5339 28.6552C32.535 28.6076 32.5162 28.5867 32.4775 28.5922C32.4731 28.5613 32.4736 28.5375 32.4792 28.5209C32.4847 28.5044 32.4902 28.4878 32.4957 28.4712C32.5233 28.4436 32.5327 28.4265 32.5239 28.4198C32.5217 28.4044 32.5084 28.3944 32.4841 28.39C32.4664 28.3767 32.4449 28.364 32.4195 28.3519C32.4018 28.3386 32.3952 28.3199 32.3996 28.2956C32.4283 28.2204 32.4283 28.1376 32.3995 28.047C32.3774 27.9475 32.3553 27.8481 32.3332 27.7487C32.311 27.6492 32.3055 27.5553 32.3165 27.4669C32.3265 27.3708 32.3811 27.2841 32.4805 27.2067C32.8021 27.1923 33.0976 27.1342 33.3672 27.0325C33.6444 26.9297 33.8991 26.8064 34.1311 26.6628C34.3708 26.518 34.5939 26.3677 34.8005 26.2118C35.0137 26.0472 35.2209 25.8952 35.4219 25.756C35.434 25.6753 35.4594 25.6046 35.4981 25.5438C35.5445 25.4819 35.5914 25.4239 35.6389 25.3698C35.6853 25.3079 35.7278 25.2465 35.7665 25.1858C35.804 25.1173 35.8283 25.0388 35.8394 24.9504C35.8427 24.9184 35.8394 24.8952 35.8294 24.8808C35.8195 24.8665 35.8062 24.8565 35.7896 24.851C35.7719 24.8377 35.7543 24.8245 35.7366 24.8112C35.7189 24.798 35.7079 24.7759 35.7034 24.745C35.6791 24.7405 35.6548 24.7361 35.6305 24.7317C35.6139 24.7262 35.5979 24.7245 35.5824 24.7267C35.367 24.655 35.1421 24.6003 34.9079 24.5628C34.6737 24.5253 34.4731 24.4751 34.3063 24.4121C34.2223 24.4873 34.1317 24.516 34.0345 24.4984C33.9373 24.4807 33.8207 24.4658 33.6848 24.4537C33.3578 24.4847 33.044 24.498 32.7435 24.4937C32.4507 24.4882 32.1606 24.4468 31.8734 24.3696C31.8513 24.3254 31.8264 24.2895 31.7988 24.2619C31.77 24.2265 31.7142 24.2227 31.6314 24.2503C31.5662 24.1807 31.4982 24.1194 31.4275 24.0664C31.3634 24.0045 31.3021 23.9344 31.2435 23.8559ZM44.488 21.6058C44.2947 21.6335 44.0881 21.6788 43.8682 21.7419C43.6472 21.7972 43.4307 21.8558 43.2186 21.9177C43.0672 21.963 42.9192 22.0039 42.7745 22.0404C42.6375 22.0758 42.5115 22.1056 42.3966 22.13C42.3668 22.3079 42.3343 22.4664 42.2989 22.6056C42.2636 22.7449 42.2239 22.8808 42.1797 23.0134C42.1367 23.1537 42.098 23.2973 42.0638 23.4443C42.0362 23.5824 42.0103 23.7321 41.986 23.8934C41.9264 24.0282 41.8772 24.1536 41.8386 24.2697C41.8066 24.3768 41.7845 24.4984 41.7724 24.6343C41.6962 24.7636 41.6443 24.8973 41.6167 25.0354C41.588 25.1657 41.5687 25.279 41.5587 25.3751L41.5323 25.521C41.4925 25.574 41.471 25.6165 41.4676 25.6486C41.4632 25.6729 41.4472 25.6989 41.4196 25.7265C41.424 25.8127 41.4091 25.9016 41.3749 25.9933C41.365 26.0342 41.3589 26.0745 41.3567 26.1143C41.3534 26.1464 41.3529 26.1701 41.3551 26.1856C41.3661 26.2629 41.354 26.3159 41.3186 26.3447C41.3319 26.3822 41.338 26.4248 41.3369 26.4723C41.3347 26.5121 41.3325 26.5518 41.3303 26.5916C41.3204 26.6877 41.3231 26.7623 41.3386 26.8153C41.3663 26.843 41.3895 26.8673 41.4083 26.8882C41.4348 26.9081 41.4547 26.9369 41.4679 26.9744C41.5188 26.9987 41.5563 27.0131 41.5806 27.0175C41.6149 27.0363 41.6652 27.0567 41.7315 27.0788L41.8525 27.1798C41.9232 27.3986 41.9139 27.5814 41.8244 27.7284C41.7294 27.8919 41.5427 27.9936 41.2643 28.0335L41.1251 28.0534C41.0809 28.0202 41.0533 27.9926 41.0422 27.9705C40.977 27.9562 40.924 27.944 40.8831 27.9341C40.8422 27.9242 40.803 27.8982 40.7654 27.8562C40.6583 27.8242 40.5715 27.7972 40.5052 27.7751L40.3925 27.732C40.3803 27.647 40.3737 27.6005 40.3726 27.5928C40.3085 27.531 40.2549 27.4597 40.2118 27.3791C40.1764 27.2973 40.1449 27.215 40.1173 27.1321C40.0919 27.0648 40.0631 27.0018 40.0311 26.9432C40.0067 26.8836 39.9758 26.8328 39.9382 26.7908C39.8586 26.3444 39.8469 25.9594 39.9032 25.6357C39.9594 25.3119 40.0213 24.9992 40.0886 24.6976C40.1283 24.5341 40.1681 24.3706 40.2078 24.207C40.2464 24.0358 40.2768 23.8617 40.2988 23.685L40.3866 23.554C40.4231 23.4225 40.4512 23.3159 40.4711 23.2341C40.4976 23.1435 40.5241 23.0529 40.5506 22.9623C40.566 22.9049 40.5782 22.8518 40.587 22.8032C40.6025 22.7458 40.6152 22.6966 40.6251 22.6557C40.5787 22.6624 40.5367 22.6723 40.4992 22.6856C40.4605 22.6911 40.4224 22.7005 40.3848 22.7138C40.3395 22.7281 40.2981 22.742 40.2605 22.7552C40.2219 22.7608 40.1832 22.7663 40.1445 22.7718C40.0904 22.7796 40.0512 22.7812 40.0269 22.7768C39.9473 22.8277 39.8573 22.8603 39.7567 22.8747L39.6407 22.8913C39.6175 22.8946 39.5943 22.8979 39.5711 22.9012C39.5546 22.8957 39.5385 22.894 39.5231 22.8963C39.4457 22.9073 39.3855 22.9278 39.3424 22.9576C39.2496 22.9709 39.1607 22.9836 39.0756 22.9958L38.9596 23.0124C38.9441 23.0146 38.9254 23.0212 38.9033 23.0323C38.8801 23.0356 38.8607 23.0384 38.8453 23.0406C38.7911 23.0483 38.7326 23.0528 38.6696 23.0539C38.6055 23.0473 38.5359 23.0296 38.4608 23.0009C38.3503 22.8904 38.279 22.8336 38.2469 22.8302L38.1226 22.706C38.1082 22.6607 38.0906 22.6198 38.0696 22.5833C38.0475 22.5392 38.0248 22.4911 38.0016 22.4392C37.9596 22.3663 37.917 22.2895 37.8739 22.2088C37.8374 22.1194 37.8103 22.0127 37.7926 21.889C37.7915 21.826 37.8004 21.7774 37.8191 21.7432C37.8379 21.7089 37.8534 21.6791 37.8655 21.6537L37.8754 21.4747L38.0279 21.4647L38.3527 21.4182C38.6002 21.3828 38.8504 21.3391 39.1034 21.2871C39.3553 21.2274 39.6149 21.1666 39.8823 21.1047C40.0348 21.0671 40.1872 21.0295 40.3397 20.9919C40.4999 20.9532 40.664 20.9139 40.8319 20.8741C40.8529 20.8001 40.8744 20.7299 40.8965 20.6636L41.0042 20.589C41.1423 20.5614 41.2417 20.5669 41.3025 20.6055C41.3699 20.6353 41.4257 20.6668 41.4699 20.6999C41.6378 20.6601 41.8058 20.6203 41.9737 20.5805C42.1482 20.5319 42.3222 20.4793 42.4957 20.423C42.7531 20.3467 43.0111 20.2742 43.2696 20.2057C43.5359 20.136 43.7927 20.0835 44.0402 20.0481C44.1485 20.0326 44.2534 20.0215 44.3551 20.0149C44.4567 20.0082 44.5512 20.0065 44.6385 20.0098L44.7661 20.0744C44.7959 20.1175 44.833 20.1556 44.8772 20.1888C44.9291 20.2208 44.981 20.2528 45.033 20.2849C45.1379 20.3567 45.2451 20.4439 45.3545 20.5466C45.4639 20.6494 45.5231 20.8145 45.532 21.0421C45.4834 21.1438 45.4447 21.2046 45.416 21.2245L45.3315 21.3786L45.2138 21.3836C45.1674 21.3902 45.126 21.4041 45.0896 21.4251C45.052 21.4383 45.015 21.4555 44.9785 21.4765C44.9498 21.4964 44.9211 21.5162 44.8924 21.5361C44.8625 21.5483 44.8288 21.561 44.7913 21.5743C44.7217 21.5842 44.6637 21.5925 44.6173 21.5992C44.5775 21.597 44.5344 21.5992 44.488 21.6058ZM50.2815 19.7352C50.3213 19.9031 50.3694 20.0462 50.4257 20.1644C50.4821 20.2826 50.5418 20.3964 50.6048 20.5057C50.659 20.6085 50.7092 20.7118 50.7557 20.8156C50.8087 20.9106 50.8535 21.0305 50.89 21.1752C50.8569 21.3852 50.837 21.5774 50.8305 21.752C50.8316 21.9254 50.83 22.1072 50.8256 22.2972C50.7406 22.5856 50.655 22.8425 50.5689 23.0679C50.4828 23.2933 50.416 23.4883 50.3685 23.653C50.3353 23.6972 50.3072 23.7486 50.284 23.8071C50.2674 23.8568 50.2476 23.911 50.2244 23.9695C50.2122 23.995 50.1979 24.0325 50.1813 24.0822C50.1647 24.132 50.1498 24.1657 50.1366 24.1833L49.8929 24.1353L49.888 24.432L49.7323 24.5016L49.6362 24.6574C49.5257 24.9337 49.4021 25.1724 49.2651 25.3735C49.127 25.5668 48.9636 25.7481 48.7747 25.9172C48.5924 26.0774 48.3781 26.2343 48.1317 26.388C47.8931 26.5405 47.6214 26.7096 47.3165 26.8953C47.1828 26.8986 47.0657 26.9075 46.9651 26.9219C46.8712 26.9274 46.7812 26.9324 46.695 26.9368C46.548 26.9579 46.3646 26.9723 46.1448 26.98C46.1127 26.9215 46.0718 26.8839 46.0221 26.8674C45.9724 26.8508 45.9282 26.8453 45.8895 26.8508C45.7492 26.8078 45.6359 26.7332 45.5497 26.6272C45.4702 26.5123 45.3895 26.3897 45.3077 26.2593C45.2569 26.1798 45.2071 26.108 45.1585 26.0439C45.1088 25.9721 45.0552 25.9008 44.9977 25.8301L45.1866 25.7439L44.8916 25.502C44.8728 25.481 44.8507 25.4645 44.8253 25.4523C44.7987 25.4324 44.7761 25.412 44.7573 25.391L44.7191 25.2071C44.6196 24.6767 44.5383 24.1912 44.4752 23.7504C44.4188 23.3007 44.4236 22.8936 44.4899 22.5289L44.4716 22.4013C44.4705 22.2279 44.4737 22.0853 44.4815 21.9737C44.4881 21.8544 44.4919 21.7434 44.493 21.6406C44.4918 21.4672 44.504 21.3036 44.5293 21.1501C44.6343 21.1114 44.7094 21.0572 44.7547 20.9876C44.7989 20.9103 44.8364 20.8417 44.8673 20.7821C44.9745 20.7589 45.0502 20.7638 45.0944 20.7969C45.1386 20.8301 45.1861 20.8864 45.237 20.966C45.2856 21.03 45.3431 21.1007 45.4094 21.1781C45.4834 21.2543 45.5817 21.3073 45.7044 21.3371C45.7287 21.3967 45.7574 21.4597 45.7906 21.526C45.8304 21.5834 45.8713 21.6486 45.9133 21.7215C45.994 21.8442 46.068 21.9756 46.1354 22.1159C46.2095 22.2474 46.2598 22.3783 46.2863 22.5087C46.23 22.6667 46.1925 22.8457 46.1738 23.0456C46.1628 23.2445 46.1639 23.4456 46.1772 23.6489C46.1971 23.8433 46.2281 24.0323 46.2701 24.2157C46.3188 24.3902 46.3752 24.5361 46.4393 24.6532L46.5305 24.794L46.7243 24.7426C46.9475 24.6475 47.1469 24.5519 47.3226 24.4557C47.5048 24.3507 47.67 24.2364 47.818 24.1126C47.966 23.9888 48.1041 23.8507 48.2323 23.6982C48.3593 23.5379 48.4913 23.3573 48.6282 23.1562C48.7652 22.955 48.8756 22.7341 48.9595 22.4932C49.0501 22.2435 49.1163 21.9893 49.1582 21.7308C49.2079 21.4711 49.2349 21.2187 49.2393 20.9734C49.2503 20.7193 49.248 20.4828 49.2325 20.2641C49.3573 20.1989 49.4098 20.0966 49.3899 19.9574L49.3484 19.8332C49.3109 19.7912 49.3031 19.737 49.3252 19.6707C49.3506 19.5172 49.4428 19.3895 49.6019 19.2879C49.7367 19.3475 49.8571 19.4171 49.9632 19.4966C50.077 19.575 50.1831 19.6545 50.2815 19.7352ZM56.6012 22.3706C56.599 22.4103 56.5963 22.4462 56.593 22.4783C56.5886 22.5026 56.5841 22.5269 56.5797 22.5512C56.5753 22.5755 56.5759 22.607 56.5814 22.6457C56.5858 22.6766 56.5919 22.7191 56.5997 22.7733C56.4263 23.2164 56.1817 23.6026 55.8657 23.9319C55.5576 24.2601 55.2063 24.5629 54.8119 24.8403C54.4242 25.1088 54.0149 25.3647 53.584 25.6079C53.1521 25.8433 52.7339 26.0925 52.3296 26.3556C52.1374 26.3357 51.9832 26.2789 51.8672 26.185C51.7589 26.09 51.6677 25.9768 51.5937 25.8453C51.5263 25.705 51.4688 25.5514 51.4212 25.3846C51.3803 25.2089 51.3388 25.0294 51.2968 24.846C51.3078 24.7576 51.3288 24.6836 51.3597 24.6239C51.3973 24.5554 51.4083 24.467 51.3928 24.3588C51.4259 24.1488 51.4596 23.9428 51.4938 23.7406C51.528 23.5384 51.5384 23.3356 51.5251 23.1323C51.5395 23.0671 51.5759 23.0185 51.6345 22.9865C51.6201 22.6097 51.5664 22.2346 51.4735 21.8612C51.3872 21.4789 51.2739 21.1282 51.1335 20.8089C51.1302 20.7305 51.1302 20.6752 51.1335 20.6432C51.1434 20.6023 51.1396 20.5752 51.1219 20.562C51.1053 20.5012 51.1202 20.4675 51.1666 20.4609C51.2207 20.4531 51.2749 20.4454 51.329 20.4376C51.3124 20.3216 51.2726 20.2089 51.2096 20.0996C51.1543 19.9891 51.0969 19.8632 51.0372 19.7218C51.0747 19.598 51.0935 19.4809 51.0934 19.3704C51.0923 19.2522 51.1127 19.1467 51.1547 19.0538C51.5911 19.1256 52.0121 19.2271 52.4176 19.3585C52.8309 19.4888 53.2292 19.5699 53.6126 19.6019C53.9197 19.7631 54.2347 19.9233 54.5573 20.0823C54.8789 20.2336 55.1767 20.412 55.4507 20.6174C55.7236 20.8151 55.9629 21.0532 56.1685 21.3315C56.374 21.6099 56.5183 21.9562 56.6012 22.3706ZM53.9432 23.402C54.0967 23.3168 54.2459 23.2284 54.3906 23.1367C54.543 23.0439 54.6789 22.9455 54.7982 22.8416C54.9241 22.7289 55.0329 22.6068 55.1246 22.4753C55.2163 22.3438 55.2853 22.1918 55.3317 22.0195C55.272 21.9333 55.1985 21.861 55.1112 21.8024C55.0228 21.7362 54.9355 21.6776 54.8493 21.6268C54.762 21.5683 54.6747 21.5097 54.5874 21.4512C54.5079 21.3915 54.4377 21.3148 54.3769 21.2209C54.2742 21.2198 54.1814 21.2055 54.0985 21.1778C54.0145 21.1425 53.9311 21.111 53.8482 21.0834C53.772 21.047 53.6886 21.0155 53.5979 20.989C53.5151 20.9614 53.419 20.9515 53.3096 20.9593C53.1273 20.8985 52.9637 20.8588 52.819 20.84C52.682 20.8202 52.5743 20.7843 52.4958 20.7324C52.4417 20.7401 52.4008 20.7578 52.3732 20.7854C52.4926 21.0683 52.5904 21.3384 52.6667 21.5958C52.7419 21.8455 52.7983 22.1018 52.8359 22.3647C52.8801 22.6188 52.9062 22.8834 52.914 23.1586C52.9217 23.4337 52.9213 23.7336 52.9125 24.0585C52.9887 24.0397 53.0561 24.0142 53.1147 23.9822C53.1798 23.9413 53.2412 23.9009 53.2986 23.8612C53.3638 23.8203 53.4295 23.7832 53.4958 23.7501C53.5687 23.7081 53.6549 23.676 53.7543 23.6539C53.7709 23.6042 53.7963 23.5611 53.8305 23.5246C53.8725 23.487 53.91 23.4462 53.9432 23.402ZM59.5781 24.3122C59.65 24.5387 59.6605 24.7227 59.6097 24.8641C59.5667 25.0044 59.4877 25.1144 59.3728 25.194C59.2668 25.2802 59.137 25.3382 58.9834 25.3681C58.8298 25.3979 58.6818 25.4112 58.5393 25.4079C58.4464 25.3107 58.3575 25.1853 58.2723 25.0318C58.1872 24.8782 58.1054 24.7203 58.027 24.5579C57.9474 24.3877 57.8722 24.2209 57.8015 24.0574C57.7385 23.8928 57.6821 23.747 57.6323 23.6199C57.6577 23.5216 57.666 23.4139 57.6571 23.2967C57.6549 23.1708 57.6449 23.0459 57.6272 22.9222C57.6172 22.7974 57.6034 22.6731 57.5857 22.5493C57.5746 22.4167 57.5685 22.2913 57.5674 22.1731C57.5751 21.8406 57.6081 21.5202 57.6666 21.2119C57.7328 20.9025 57.7742 20.5849 57.7907 20.2589C57.7962 20.1871 57.7791 20.1225 57.7393 20.065C57.7072 20.0065 57.6951 19.949 57.7028 19.8927C57.7061 19.8606 57.7265 19.838 57.7641 19.8247C57.8006 19.8037 57.8199 19.7733 57.8221 19.7336C57.8331 19.6452 57.827 19.575 57.8038 19.5231C57.7883 19.4701 57.7944 19.4021 57.822 19.3192C57.8518 19.2518 57.8855 19.1563 57.923 19.0325C57.9672 18.8999 57.9721 18.769 57.9379 18.6397C58.0008 18.5834 58.0588 18.5198 58.1118 18.4491C58.1649 18.3784 58.219 18.3154 58.2742 18.2601C58.3361 18.196 58.4029 18.1391 58.4747 18.0894C58.5542 18.0386 58.652 18.0048 58.768 17.9882C58.841 18.0567 58.8918 18.1363 58.9205 18.2269C58.957 18.3163 58.9896 18.4064 59.0184 18.497C59.0549 18.5865 59.0985 18.671 59.1494 18.7505C59.1991 18.8223 59.2737 18.8748 59.3731 18.9079C59.382 18.9698 59.393 19.0471 59.4063 19.1399C59.4196 19.2327 59.4367 19.325 59.4578 19.4167C59.4777 19.5006 59.5047 19.5796 59.539 19.6536C59.5799 19.7188 59.6329 19.7586 59.6981 19.7729C59.612 20.1641 59.5331 20.5502 59.4614 20.9314C59.3974 21.3115 59.3533 21.6927 59.3291 22.075C59.3037 22.4495 59.306 22.8241 59.3359 23.1986C59.3736 23.572 59.4543 23.9433 59.5781 24.3122ZM67.0732 20.5171C67.0787 20.611 67.0992 20.6989 67.1346 20.7806C67.17 20.8624 67.2092 20.9436 67.2523 21.0242C67.302 21.096 67.3485 21.1722 67.3916 21.2529C67.4347 21.3335 67.47 21.4153 67.4977 21.4981C67.5286 21.6042 67.5458 21.7241 67.5491 21.8578C67.5514 21.9837 67.542 22.1113 67.521 22.2406C67.499 22.3621 67.4642 22.4776 67.4167 22.587C67.3681 22.6886 67.3046 22.7688 67.2262 22.8273C67.1378 22.982 67.0218 23.1091 66.8782 23.2086C66.7346 23.3081 66.6048 23.4213 66.4888 23.5484C66.4115 23.6147 66.3204 23.6672 66.2154 23.7059C66.1182 23.7435 66.0171 23.7816 65.9122 23.8203C65.8337 23.8789 65.7404 23.9436 65.6321 24.0143C65.5228 24.0773 65.4095 24.1408 65.2924 24.205C65.1742 24.2613 65.0549 24.31 64.9345 24.3509C64.8129 24.384 64.7052 24.4034 64.6113 24.4089C64.3915 24.5272 64.1711 24.614 63.9501 24.6693C63.738 24.7312 63.4806 24.7522 63.1778 24.7324C62.905 24.8109 62.6442 24.8364 62.3956 24.8088C62.1548 24.7802 61.9321 24.7134 61.7277 24.6084C61.5299 24.4947 61.3481 24.355 61.1824 24.1893C61.0232 24.0147 60.8862 23.8291 60.7712 23.6325C60.6463 23.2005 60.6048 22.8 60.6467 22.431C60.6875 22.0542 60.7714 21.7029 60.8984 21.3769C61.032 21.0421 61.1927 20.7311 61.3804 20.4438C61.5671 20.1487 61.7471 19.8625 61.9205 19.5852C61.9691 19.594 62.0039 19.589 62.0249 19.5702C62.0525 19.5426 62.0757 19.5117 62.0945 19.4774C62.1122 19.4354 62.1304 19.3973 62.1492 19.3631C62.1757 19.3277 62.2077 19.3034 62.2453 19.2901C62.2828 19.1664 62.348 19.0702 62.4408 19.0017C62.5402 18.9243 62.6131 18.8271 62.6595 18.71C62.7269 18.6845 62.7815 18.653 62.8235 18.6155C62.8655 18.5779 62.9031 18.537 62.9362 18.4928C62.9771 18.4475 63.0185 18.4061 63.0605 18.3685C63.1013 18.3232 63.1516 18.2884 63.2113 18.264L63.193 18.1364C63.3234 18.0547 63.4139 17.9707 63.4647 17.8845C63.5222 17.7894 63.589 17.6773 63.6652 17.548C63.7337 17.5303 63.7873 17.5187 63.8259 17.5132C63.8723 17.5065 63.937 17.4894 64.0198 17.4617C64.0662 17.3446 64.1087 17.2557 64.1474 17.1949C64.1938 17.133 64.2628 17.0639 64.3545 16.9877C64.4539 17.0208 64.5589 17.0374 64.6694 17.0373C64.7876 17.0362 64.8953 17.0721 64.9926 17.145C65.0114 17.2212 65.0434 17.2798 65.0887 17.3207C65.133 17.3538 65.181 17.3864 65.233 17.4184C65.2838 17.4427 65.3313 17.4714 65.3755 17.5045C65.4274 17.5366 65.4661 17.5863 65.4915 17.6537C65.5236 17.657 65.5424 17.6504 65.5479 17.6338C65.5611 17.6161 65.5838 17.6089 65.6158 17.6122C65.6545 17.7172 65.6921 17.7868 65.7286 17.821C65.7639 17.8475 65.8043 17.9088 65.8496 18.0049C65.822 18.0878 65.8027 18.1734 65.7916 18.2618C65.7872 18.3414 65.7491 18.406 65.6773 18.4558C65.6773 18.511 65.6972 18.5397 65.737 18.5419C65.7757 18.5364 65.8016 18.5524 65.8149 18.59C65.8326 18.6585 65.8282 18.7104 65.8017 18.7458C66.0305 19.0208 66.2426 19.318 66.4383 19.6372C66.6328 19.9488 66.8444 20.2421 67.0732 20.5171ZM65.7808 21.8267C65.7996 21.7372 65.8283 21.662 65.8669 21.6012C65.9133 21.5394 65.9326 21.4537 65.9249 21.3444C65.8774 21.288 65.8475 21.2449 65.8354 21.2151C65.8221 21.1775 65.8099 21.1201 65.7989 21.0428C65.5944 20.8273 65.411 20.5932 65.2485 20.3402C65.0849 20.0795 64.9086 19.8403 64.7197 19.6227C64.7086 19.6558 64.686 19.6906 64.6517 19.7271C64.6175 19.7636 64.5739 19.7619 64.5208 19.7222C64.5142 19.7863 64.4938 19.8365 64.4595 19.873C64.4242 19.9017 64.3833 19.9194 64.3369 19.9261C64.2894 19.925 64.2375 19.9206 64.1811 19.9128C64.1314 19.8963 64.085 19.8753 64.0419 19.8499C63.8431 20.0599 63.6437 20.2659 63.4437 20.4682C63.2438 20.6704 63.0709 20.8964 62.9252 21.1461C62.8964 21.166 62.8782 21.1765 62.8705 21.1776C62.8616 21.171 62.839 21.1782 62.8025 21.1992C62.7617 21.355 62.7037 21.5014 62.6286 21.6384C62.5601 21.7666 62.4922 21.8986 62.4249 22.0345C62.3575 22.1704 62.3028 22.3124 62.2609 22.4605C62.2189 22.6085 62.2074 22.7759 62.2262 22.9627C62.3731 23.0521 62.5372 23.0957 62.7184 23.0935C62.8996 23.0912 63.0819 23.0691 63.2653 23.0271C63.4564 22.9839 63.6387 22.9342 63.8122 22.8778C63.9923 22.8126 64.1596 22.7689 64.3143 22.7468C64.6281 22.6229 64.8921 22.4826 65.1064 22.3256C65.3196 22.161 65.5444 21.9946 65.7808 21.8267Z" fill="#6EFF3A"/>
</svg>
