<svg width="42" height="42" viewBox="0 0 42 42" fill="none" xmlns="http://www.w3.org/2000/svg">
<path d="M21.035 3.5C30.975 3.5 38.5 11.6497 38.5 20.9737C38.5 31.7887 29.68 38.5 21 38.5C18.13 38.5 14.945 37.73 12.39 36.2215C11.4975 35.679 10.745 35.2765 9.7825 35.5915L6.2475 36.6415C5.355 36.9215 4.55 36.2215 4.8125 35.2765L5.985 31.3495C6.1775 30.807 6.1425 30.2277 5.8625 29.7727C4.3575 27.0025 3.5 23.9715 3.5 21.0263C3.5 11.8073 10.8675 3.5 21.035 3.5ZM29.0325 18.8003C27.79 18.8003 26.7925 19.7995 26.7925 21.0437C26.7925 22.2705 27.79 23.2873 29.0325 23.2873C30.275 23.2873 31.2725 22.2722 31.2725 21.0437C31.2725 19.7995 30.275 18.8003 29.0325 18.8003ZM20.965 18.8003C19.74 18.7828 18.725 19.7995 18.725 21.0263C18.725 22.2705 19.7225 23.2698 20.965 23.2873C22.2075 23.2873 23.205 22.2722 23.205 21.0437C23.205 19.7995 22.2075 18.8003 20.965 18.8003ZM12.8975 18.8003C11.655 18.8003 10.6575 19.7995 10.6575 21.0437C10.6575 22.2705 11.6725 23.2873 12.8975 23.2873C13.4908 23.2827 14.0584 23.0447 14.4776 22.6249C14.8968 22.205 15.1338 21.637 15.1375 21.0437C15.1375 19.7995 14.14 18.8003 12.8975 18.8003Z" fill="#6EFF3A"/>
</svg>
