<svg width="124" height="124" viewBox="0 0 124 124" fill="none" xmlns="http://www.w3.org/2000/svg">
<path fill-rule="evenodd" clip-rule="evenodd" d="M21.5721 0H28.0284L2.02656e-06 28.0285V21.5718L21.5721 0ZM2.02656e-06 5.98407L5.98397 0H2.02656e-06V5.98407ZM2.02656e-06 43.616L43.6166 0H50.0729L2.02656e-06 50.0729V43.616ZM2.02656e-06 65.6605L65.661 0H72.1173L2.02656e-06 72.1173V65.6605ZM2.02656e-06 87.7049L87.7055 0H94.162L2.02656e-06 94.1617V87.7049ZM2.02656e-06 109.749L109.75 0H116.206L2.02656e-06 116.206V109.749ZM7.79437 124L124 7.79398V14.2507L14.2506 124H7.79437ZM29.8388 124L124 29.8384V36.2951L36.2951 124H29.8388ZM51.8833 124L124 51.8827V58.3395L58.3395 124H51.8833ZM73.9277 124L124 73.9271V80.384L80.384 124H73.9277ZM95.9719 124L124 95.9716V102.428L102.429 124H95.9719ZM118.016 124L124 118.016V124H118.016Z" fill="#6EFF3A"/>
</svg>
