<svg width="323" height="66" viewBox="0 0 323 66" fill="none" xmlns="http://www.w3.org/2000/svg">
<path d="M321.879 20.4124C322.028 22.2993 321.159 24.2879 319.22 26.3644C317.282 28.4399 314.321 30.5517 310.413 32.6635C302.6 36.8852 291.11 41.0505 276.772 44.9226C248.105 52.6646 208.153 59.2086 163.715 62.7131C119.277 66.2175 78.7932 66.0168 49.2668 62.864C34.4994 61.2872 22.4984 58.9745 14.1203 56.0296C9.92939 54.5565 6.6737 52.935 4.43449 51.1889C2.19422 49.442 1.02429 47.6142 0.87548 45.7273C0.726672 43.8403 1.59564 41.8517 3.53439 39.7752C5.47222 37.6998 8.4335 35.588 12.3417 33.4762C20.1547 29.2544 31.6448 25.0892 45.9824 21.2171C74.6497 13.4751 114.602 6.93103 159.039 3.42658C203.477 -0.0778717 243.961 0.12289 273.488 3.27564C288.255 4.85245 300.256 7.16515 308.634 10.11C312.825 11.5831 316.081 13.2046 318.32 14.9507C320.56 16.6976 321.73 18.5254 321.879 20.4124Z" stroke="#6EFF3A"/>
</svg>
