<svg width="960" height="479" viewBox="0 0 960 479" fill="none" xmlns="http://www.w3.org/2000/svg">
<path d="M730.579 176.334C729.051 176.36 727.594 176.984 726.522 178.072C725.45 179.161 724.85 180.626 724.85 182.153C724.85 183.68 725.45 185.146 726.522 186.234C727.594 187.323 729.051 187.947 730.579 187.972H876.622C877.388 187.985 878.148 187.848 878.861 187.567C879.573 187.287 880.223 186.869 880.773 186.338C881.324 185.806 881.764 185.171 882.068 184.47C882.373 183.768 882.537 183.013 882.549 182.249C882.562 181.484 882.423 180.725 882.142 180.013C881.86 179.302 881.441 178.653 880.908 178.104C880.376 177.555 879.74 177.116 879.037 176.812C878.335 176.508 877.579 176.346 876.814 176.334C876.75 176.333 876.686 176.333 876.622 176.334H730.579Z" fill="#6EFF3A"/>
<path d="M909.741 174.714C909.635 174.821 909.55 174.947 909.493 175.086C909.435 175.225 909.405 175.374 909.405 175.524C909.405 175.674 909.435 175.823 909.493 175.962C909.55 176.101 909.635 176.227 909.741 176.334L914.662 181.249H902.528C902.225 181.249 901.933 181.369 901.718 181.584C901.503 181.799 901.382 182.09 901.382 182.394C901.382 182.698 901.503 182.989 901.718 183.204C901.933 183.418 902.225 183.539 902.528 183.539H914.662L909.741 188.454C909.635 188.561 909.55 188.687 909.493 188.826C909.435 188.965 909.405 189.113 909.405 189.264C909.405 189.414 909.435 189.563 909.493 189.702C909.55 189.841 909.635 189.967 909.741 190.073C909.848 190.18 909.974 190.264 910.113 190.322C910.252 190.379 910.401 190.409 910.552 190.409C910.702 190.409 910.851 190.379 910.99 190.322C911.129 190.264 911.256 190.18 911.362 190.074L918.239 183.204C918.454 182.989 918.575 182.698 918.575 182.394C918.575 182.09 918.454 181.799 918.239 181.584L911.362 174.714C911.256 174.608 911.129 174.524 910.99 174.466C910.851 174.409 910.702 174.379 910.552 174.379C910.401 174.379 910.252 174.409 910.113 174.466C909.974 174.524 909.848 174.608 909.741 174.714Z" fill="white"/>
<path d="M697.398 174.714C697.504 174.821 697.589 174.947 697.647 175.086C697.704 175.225 697.734 175.374 697.734 175.524C697.734 175.674 697.704 175.823 697.647 175.962C697.589 176.101 697.504 176.227 697.398 176.334L692.478 181.249H704.611C704.762 181.248 704.911 181.278 705.05 181.335C705.19 181.392 705.317 181.477 705.423 181.583C705.53 181.689 705.615 181.816 705.673 181.955C705.731 182.094 705.76 182.243 705.76 182.394C705.76 182.545 705.731 182.694 705.673 182.833C705.615 182.972 705.53 183.098 705.423 183.205C705.317 183.311 705.19 183.395 705.05 183.453C704.911 183.51 704.762 183.539 704.611 183.539H692.478L697.398 188.454C697.613 188.669 697.734 188.96 697.734 189.264C697.734 189.567 697.613 189.859 697.398 190.073C697.183 190.288 696.892 190.409 696.588 190.409C696.284 190.409 695.992 190.288 695.777 190.074L688.9 183.204C688.685 182.989 688.564 182.698 688.564 182.394C688.564 182.09 688.685 181.799 688.9 181.584L695.777 174.714C695.884 174.608 696.01 174.524 696.149 174.466C696.288 174.409 696.437 174.379 696.588 174.379C696.738 174.379 696.887 174.409 697.026 174.466C697.165 174.524 697.292 174.608 697.398 174.714V174.714Z" fill="white"/>
<g opacity="0.4">
<path d="M736.477 55.5641C739.934 55.5641 742.736 52.7645 742.736 49.311C742.736 45.8575 739.934 43.0579 736.477 43.0579C733.02 43.0579 730.217 45.8575 730.217 49.311C730.217 52.7645 733.02 55.5641 736.477 55.5641Z" fill="white"/>
<path d="M762.558 55.5641C766.015 55.5641 768.818 52.7645 768.818 49.311C768.818 45.8575 766.015 43.0579 762.558 43.0579C759.101 43.0579 756.299 45.8575 756.299 49.311C756.299 52.7645 759.101 55.5641 762.558 55.5641Z" fill="white"/>
<path d="M788.639 55.5641C792.096 55.5641 794.899 52.7645 794.899 49.311C794.899 45.8575 792.096 43.0579 788.639 43.0579C785.182 43.0579 782.38 45.8575 782.38 49.311C782.38 52.7645 785.182 55.5641 788.639 55.5641Z" fill="white"/>
<path d="M814.72 55.5641C818.177 55.5641 820.98 52.7645 820.98 49.311C820.98 45.8575 818.177 43.0579 814.72 43.0579C811.263 43.0579 808.461 45.8575 808.461 49.311C808.461 52.7645 811.263 55.5641 814.72 55.5641Z" fill="white"/>
<path d="M840.801 55.5641C844.259 55.5641 847.061 52.7645 847.061 49.311C847.061 45.8575 844.259 43.0579 840.801 43.0579C837.344 43.0579 834.542 45.8575 834.542 49.311C834.542 52.7645 837.344 55.5641 840.801 55.5641Z" fill="white"/>
<path d="M866.883 55.5641C870.34 55.5641 873.143 52.7645 873.143 49.311C873.143 45.8575 870.34 43.0579 866.883 43.0579C863.426 43.0579 860.624 45.8575 860.624 49.311C860.624 52.7645 863.426 55.5641 866.883 55.5641Z" fill="white"/>
<path d="M892.964 55.5641C896.421 55.5641 899.224 52.7645 899.224 49.311C899.224 45.8575 896.421 43.0579 892.964 43.0579C889.507 43.0579 886.705 45.8575 886.705 49.311C886.705 52.7645 889.507 55.5641 892.964 55.5641Z" fill="white"/>
<path d="M736.477 75.3655C739.934 75.3655 742.736 72.5659 742.736 69.1124C742.736 65.6589 739.934 62.8593 736.477 62.8593C733.02 62.8593 730.217 65.6589 730.217 69.1124C730.217 72.5659 733.02 75.3655 736.477 75.3655Z" fill="white"/>
<path d="M762.558 75.3655C766.015 75.3655 768.818 72.5659 768.818 69.1124C768.818 65.6589 766.015 62.8593 762.558 62.8593C759.101 62.8593 756.299 65.6589 756.299 69.1124C756.299 72.5659 759.101 75.3655 762.558 75.3655Z" fill="white"/>
<path d="M788.639 75.3655C792.096 75.3655 794.899 72.5659 794.899 69.1124C794.899 65.6589 792.096 62.8593 788.639 62.8593C785.182 62.8593 782.38 65.6589 782.38 69.1124C782.38 72.5659 785.182 75.3655 788.639 75.3655Z" fill="white"/>
<path d="M814.72 75.3655C818.177 75.3655 820.98 72.5659 820.98 69.1124C820.98 65.6589 818.177 62.8593 814.72 62.8593C811.263 62.8593 808.461 65.6589 808.461 69.1124C808.461 72.5659 811.263 75.3655 814.72 75.3655Z" fill="white"/>
<path d="M840.801 75.3655C844.259 75.3655 847.061 72.5659 847.061 69.1124C847.061 65.6589 844.259 62.8593 840.801 62.8593C837.344 62.8593 834.542 65.6589 834.542 69.1124C834.542 72.5659 837.344 75.3655 840.801 75.3655Z" fill="white"/>
<path d="M866.883 75.3655C870.34 75.3655 873.143 72.5659 873.143 69.1124C873.143 65.6589 870.34 62.8593 866.883 62.8593C863.426 62.8593 860.624 65.6589 860.624 69.1124C860.624 72.5659 863.426 75.3655 866.883 75.3655Z" fill="white"/>
<path d="M892.964 75.3655C896.421 75.3655 899.224 72.5659 899.224 69.1124C899.224 65.6589 896.421 62.8593 892.964 62.8593C889.507 62.8593 886.705 65.6589 886.705 69.1124C886.705 72.5659 889.507 75.3655 892.964 75.3655Z" fill="white"/>
<path d="M736.477 95.1669C739.934 95.1669 742.736 92.3673 742.736 88.9138C742.736 85.4604 739.934 82.6608 736.477 82.6608C733.02 82.6608 730.217 85.4604 730.217 88.9138C730.217 92.3673 733.02 95.1669 736.477 95.1669Z" fill="white"/>
<path d="M762.558 95.1669C766.015 95.1669 768.818 92.3673 768.818 88.9138C768.818 85.4604 766.015 82.6608 762.558 82.6608C759.101 82.6608 756.299 85.4604 756.299 88.9138C756.299 92.3673 759.101 95.1669 762.558 95.1669Z" fill="white"/>
<path d="M788.639 95.1669C792.096 95.1669 794.899 92.3673 794.899 88.9138C794.899 85.4604 792.096 82.6608 788.639 82.6608C785.182 82.6608 782.38 85.4604 782.38 88.9138C782.38 92.3673 785.182 95.1669 788.639 95.1669Z" fill="white"/>
<path d="M814.72 95.1669C818.177 95.1669 820.98 92.3673 820.98 88.9138C820.98 85.4604 818.177 82.6608 814.72 82.6608C811.263 82.6608 808.461 85.4604 808.461 88.9138C808.461 92.3673 811.263 95.1669 814.72 95.1669Z" fill="white"/>
<path d="M840.801 95.1669C844.259 95.1669 847.061 92.3673 847.061 88.9138C847.061 85.4604 844.259 82.6608 840.801 82.6608C837.344 82.6608 834.542 85.4604 834.542 88.9138C834.542 92.3673 837.344 95.1669 840.801 95.1669Z" fill="white"/>
<path d="M866.883 95.1669C870.34 95.1669 873.143 92.3673 873.143 88.9138C873.143 85.4604 870.34 82.6608 866.883 82.6608C863.426 82.6608 860.624 85.4604 860.624 88.9138C860.624 92.3673 863.426 95.1669 866.883 95.1669Z" fill="white"/>
<path d="M892.964 95.1669C896.421 95.1669 899.224 92.3673 899.224 88.9138C899.224 85.4604 896.421 82.6608 892.964 82.6608C889.507 82.6608 886.705 85.4604 886.705 88.9138C886.705 92.3673 889.507 95.1669 892.964 95.1669Z" fill="white"/>
<path d="M736.477 114.968C739.934 114.968 742.736 112.169 742.736 108.715C742.736 105.262 739.934 102.462 736.477 102.462C733.02 102.462 730.217 105.262 730.217 108.715C730.217 112.169 733.02 114.968 736.477 114.968Z" fill="white"/>
<path d="M762.558 114.968C766.015 114.968 768.818 112.169 768.818 108.715C768.818 105.262 766.015 102.462 762.558 102.462C759.101 102.462 756.299 105.262 756.299 108.715C756.299 112.169 759.101 114.968 762.558 114.968Z" fill="white"/>
<path d="M736.477 134.77C739.934 134.77 742.736 131.97 742.736 128.517C742.736 125.063 739.934 122.264 736.477 122.264C733.02 122.264 730.217 125.063 730.217 128.517C730.217 131.97 733.02 134.77 736.477 134.77Z" fill="white"/>
<path d="M762.558 134.77C766.015 134.77 768.818 131.97 768.818 128.517C768.818 125.063 766.015 122.264 762.558 122.264C759.101 122.264 756.299 125.063 756.299 128.517C756.299 131.97 759.101 134.77 762.558 134.77Z" fill="white"/>
<path d="M788.639 134.77C792.096 134.77 794.899 131.97 794.899 128.517C794.899 125.063 792.096 122.264 788.639 122.264C785.182 122.264 782.38 125.063 782.38 128.517C782.38 131.97 785.182 134.77 788.639 134.77Z" fill="white"/>
<path d="M788.639 114.968C792.096 114.968 794.899 112.169 794.899 108.715C794.899 105.262 792.096 102.462 788.639 102.462C785.182 102.462 782.38 105.262 782.38 108.715C782.38 112.169 785.182 114.968 788.639 114.968Z" fill="white"/>
<path d="M814.72 114.968C818.177 114.968 820.98 112.169 820.98 108.715C820.98 105.262 818.177 102.462 814.72 102.462C811.263 102.462 808.461 105.262 808.461 108.715C808.461 112.169 811.263 114.968 814.72 114.968Z" fill="white"/>
<path d="M840.801 114.968C844.259 114.968 847.061 112.169 847.061 108.715C847.061 105.262 844.259 102.462 840.801 102.462C837.344 102.462 834.542 105.262 834.542 108.715C834.542 112.169 837.344 114.968 840.801 114.968Z" fill="white"/>
<path d="M866.883 114.968C870.34 114.968 873.143 112.169 873.143 108.715C873.143 105.262 870.34 102.462 866.883 102.462C863.426 102.462 860.624 105.262 860.624 108.715C860.624 112.169 863.426 114.968 866.883 114.968Z" fill="white"/>
<path d="M892.964 114.968C896.421 114.968 899.224 112.169 899.224 108.715C899.224 105.262 896.421 102.462 892.964 102.462C889.507 102.462 886.705 105.262 886.705 108.715C886.705 112.169 889.507 114.968 892.964 114.968Z" fill="white"/>
</g>
<path d="M646.684 367.42C639.851 367.42 633.17 365.395 627.488 361.603C621.806 357.81 617.377 352.419 614.762 346.112C612.147 339.805 611.463 332.864 612.796 326.169C614.129 319.473 617.42 313.323 622.252 308.495C627.084 303.668 633.241 300.381 639.944 299.049C646.646 297.717 653.594 298.4 659.907 301.013C666.221 303.625 671.617 308.05 675.414 313.726C679.211 319.402 681.237 326.076 681.237 332.903C681.227 342.054 677.583 350.828 671.105 357.299C664.628 363.77 655.845 367.409 646.684 367.42V367.42ZM646.684 300.343C640.238 300.343 633.937 302.252 628.577 305.83C623.217 309.408 619.039 314.493 616.572 320.442C614.105 326.392 613.46 332.939 614.717 339.255C615.975 345.571 619.079 351.372 623.637 355.926C628.196 360.48 634.003 363.581 640.326 364.837C646.648 366.093 653.202 365.449 659.157 362.984C665.113 360.52 670.204 356.346 673.785 350.992C677.366 345.638 679.278 339.342 679.278 332.903C679.268 324.27 675.831 315.994 669.721 309.89C663.61 303.786 655.326 300.352 646.684 300.343V300.343Z" fill="#6EFF3A"/>
<path d="M659.932 329.594H649.997V319.669C649.997 318.792 649.648 317.95 649.027 317.33C648.406 316.709 647.563 316.361 646.685 316.361C645.807 316.361 644.964 316.709 644.343 317.33C643.722 317.95 643.373 318.792 643.373 319.669V329.594H633.438C632.559 329.594 631.717 329.943 631.096 330.563C630.475 331.184 630.126 332.025 630.126 332.903C630.126 333.78 630.475 334.621 631.096 335.242C631.717 335.862 632.559 336.211 633.438 336.211H643.373V346.136C643.373 347.014 643.722 347.855 644.343 348.476C644.964 349.096 645.807 349.445 646.685 349.445C647.563 349.445 648.406 349.096 649.027 348.476C649.648 347.855 649.997 347.014 649.997 346.136V336.211H659.932C660.81 336.211 661.653 335.862 662.274 335.242C662.895 334.621 663.244 333.78 663.244 332.903C663.244 332.025 662.895 331.184 662.274 330.563C661.653 329.943 660.81 329.594 659.932 329.594V329.594Z" fill="white"/>
<g opacity="0.4">
<path d="M52.9214 371.658C55.6394 371.658 57.8428 369.456 57.8428 366.741C57.8428 364.026 55.6394 361.825 52.9214 361.825C50.2034 361.825 48 364.026 48 366.741C48 369.456 50.2034 371.658 52.9214 371.658Z" fill="white"/>
<path d="M52.9214 351.173C55.6394 351.173 57.8428 348.972 57.8428 346.257C57.8428 343.541 55.6394 341.34 52.9214 341.34C50.2034 341.34 48 343.541 48 346.257C48 348.972 50.2034 351.173 52.9214 351.173Z" fill="white"/>
<path d="M52.9214 330.688C55.6394 330.688 57.8428 328.487 57.8428 325.772C57.8428 323.057 55.6394 320.855 52.9214 320.855C50.2034 320.855 48 323.057 48 325.772C48 328.487 50.2034 330.688 52.9214 330.688Z" fill="white"/>
<path d="M52.9214 310.203C55.6394 310.203 57.8428 308.002 57.8428 305.287C57.8428 302.572 55.6394 300.371 52.9214 300.371C50.2034 300.371 48 302.572 48 305.287C48 308.002 50.2034 310.203 52.9214 310.203Z" fill="white"/>
<path d="M52.9214 289.719C55.6394 289.719 57.8428 287.517 57.8428 284.802C57.8428 282.087 55.6394 279.886 52.9214 279.886C50.2034 279.886 48 282.087 48 284.802C48 287.517 50.2034 289.719 52.9214 289.719Z" fill="white"/>
<path d="M52.9214 269.234C55.6394 269.234 57.8428 267.033 57.8428 264.317C57.8428 261.602 55.6394 259.401 52.9214 259.401C50.2034 259.401 48 261.602 48 264.317C48 267.033 50.2034 269.234 52.9214 269.234Z" fill="white"/>
<path d="M52.9214 248.749C55.6394 248.749 57.8428 246.548 57.8428 243.833C57.8428 241.118 55.6394 238.916 52.9214 238.916C50.2034 238.916 48 241.118 48 243.833C48 246.548 50.2034 248.749 52.9214 248.749Z" fill="white"/>
<path d="M68.5059 371.658C71.2239 371.658 73.4272 369.456 73.4272 366.741C73.4272 364.026 71.2239 361.825 68.5059 361.825C65.7879 361.825 63.5845 364.026 63.5845 366.741C63.5845 369.456 65.7879 371.658 68.5059 371.658Z" fill="white"/>
<path d="M68.5059 351.173C71.2239 351.173 73.4272 348.972 73.4272 346.257C73.4272 343.541 71.2239 341.34 68.5059 341.34C65.7879 341.34 63.5845 343.541 63.5845 346.257C63.5845 348.972 65.7879 351.173 68.5059 351.173Z" fill="white"/>
<path d="M68.5059 330.688C71.2239 330.688 73.4272 328.487 73.4272 325.772C73.4272 323.057 71.2239 320.855 68.5059 320.855C65.7879 320.855 63.5845 323.057 63.5845 325.772C63.5845 328.487 65.7879 330.688 68.5059 330.688Z" fill="white"/>
<path d="M68.5059 310.203C71.2239 310.203 73.4272 308.002 73.4272 305.287C73.4272 302.572 71.2239 300.371 68.5059 300.371C65.7879 300.371 63.5845 302.572 63.5845 305.287C63.5845 308.002 65.7879 310.203 68.5059 310.203Z" fill="white"/>
<path d="M68.5059 289.719C71.2239 289.719 73.4272 287.517 73.4272 284.802C73.4272 282.087 71.2239 279.886 68.5059 279.886C65.7879 279.886 63.5845 282.087 63.5845 284.802C63.5845 287.517 65.7879 289.719 68.5059 289.719Z" fill="white"/>
<path d="M68.5059 269.234C71.2239 269.234 73.4272 267.033 73.4272 264.317C73.4272 261.602 71.2239 259.401 68.5059 259.401C65.7879 259.401 63.5845 261.602 63.5845 264.317C63.5845 267.033 65.7879 269.234 68.5059 269.234Z" fill="white"/>
<path d="M68.5059 248.749C71.2239 248.749 73.4272 246.548 73.4272 243.833C73.4272 241.118 71.2239 238.916 68.5059 238.916C65.7879 238.916 63.5845 241.118 63.5845 243.833C63.5845 246.548 65.7879 248.749 68.5059 248.749Z" fill="white"/>
<path d="M84.0903 371.658C86.8083 371.658 89.0117 369.456 89.0117 366.741C89.0117 364.026 86.8083 361.825 84.0903 361.825C81.3723 361.825 79.1689 364.026 79.1689 366.741C79.1689 369.456 81.3723 371.658 84.0903 371.658Z" fill="white"/>
<path d="M84.0903 351.173C86.8083 351.173 89.0117 348.972 89.0117 346.257C89.0117 343.541 86.8083 341.34 84.0903 341.34C81.3723 341.34 79.1689 343.541 79.1689 346.257C79.1689 348.972 81.3723 351.173 84.0903 351.173Z" fill="white"/>
<path d="M84.0903 330.688C86.8083 330.688 89.0117 328.487 89.0117 325.772C89.0117 323.057 86.8083 320.855 84.0903 320.855C81.3723 320.855 79.1689 323.057 79.1689 325.772C79.1689 328.487 81.3723 330.688 84.0903 330.688Z" fill="white"/>
<path d="M84.0903 310.203C86.8083 310.203 89.0117 308.002 89.0117 305.287C89.0117 302.572 86.8083 300.371 84.0903 300.371C81.3723 300.371 79.1689 302.572 79.1689 305.287C79.1689 308.002 81.3723 310.203 84.0903 310.203Z" fill="white"/>
<path d="M84.0903 289.719C86.8083 289.719 89.0117 287.517 89.0117 284.802C89.0117 282.087 86.8083 279.886 84.0903 279.886C81.3723 279.886 79.1689 282.087 79.1689 284.802C79.1689 287.517 81.3723 289.719 84.0903 289.719Z" fill="white"/>
<path d="M84.0903 269.234C86.8083 269.234 89.0117 267.033 89.0117 264.317C89.0117 261.602 86.8083 259.401 84.0903 259.401C81.3723 259.401 79.1689 261.602 79.1689 264.317C79.1689 267.033 81.3723 269.234 84.0903 269.234Z" fill="white"/>
<path d="M84.0903 248.749C86.8083 248.749 89.0117 246.548 89.0117 243.833C89.0117 241.118 86.8083 238.916 84.0903 238.916C81.3723 238.916 79.1689 241.118 79.1689 243.833C79.1689 246.548 81.3723 248.749 84.0903 248.749Z" fill="white"/>
<path d="M99.6743 371.658C102.392 371.658 104.596 369.456 104.596 366.741C104.596 364.026 102.392 361.825 99.6743 361.825C96.9563 361.825 94.7529 364.026 94.7529 366.741C94.7529 369.456 96.9563 371.658 99.6743 371.658Z" fill="white"/>
<path d="M99.6743 351.173C102.392 351.173 104.596 348.972 104.596 346.257C104.596 343.541 102.392 341.34 99.6743 341.34C96.9563 341.34 94.7529 343.541 94.7529 346.257C94.7529 348.972 96.9563 351.173 99.6743 351.173Z" fill="white"/>
<path d="M115.259 371.658C117.977 371.658 120.18 369.456 120.18 366.741C120.18 364.026 117.977 361.825 115.259 361.825C112.541 361.825 110.337 364.026 110.337 366.741C110.337 369.456 112.541 371.658 115.259 371.658Z" fill="white"/>
<path d="M115.259 351.173C117.977 351.173 120.18 348.972 120.18 346.257C120.18 343.541 117.977 341.34 115.259 341.34C112.541 341.34 110.337 343.541 110.337 346.257C110.337 348.972 112.541 351.173 115.259 351.173Z" fill="white"/>
<path d="M115.259 330.688C117.977 330.688 120.18 328.487 120.18 325.772C120.18 323.057 117.977 320.855 115.259 320.855C112.541 320.855 110.337 323.057 110.337 325.772C110.337 328.487 112.541 330.688 115.259 330.688Z" fill="white"/>
<path d="M99.6743 330.688C102.392 330.688 104.596 328.487 104.596 325.772C104.596 323.057 102.392 320.855 99.6743 320.855C96.9563 320.855 94.7529 323.057 94.7529 325.772C94.7529 328.487 96.9563 330.688 99.6743 330.688Z" fill="white"/>
<path d="M99.6743 310.203C102.392 310.203 104.596 308.002 104.596 305.287C104.596 302.572 102.392 300.371 99.6743 300.371C96.9563 300.371 94.7529 302.572 94.7529 305.287C94.7529 308.002 96.9563 310.203 99.6743 310.203Z" fill="white"/>
<path d="M99.6743 289.719C102.392 289.719 104.596 287.517 104.596 284.802C104.596 282.087 102.392 279.886 99.6743 279.886C96.9563 279.886 94.7529 282.087 94.7529 284.802C94.7529 287.517 96.9563 289.719 99.6743 289.719Z" fill="white"/>
<path d="M99.6743 269.234C102.392 269.234 104.596 267.033 104.596 264.317C104.596 261.602 102.392 259.401 99.6743 259.401C96.9563 259.401 94.7529 261.602 94.7529 264.317C94.7529 267.033 96.9563 269.234 99.6743 269.234Z" fill="white"/>
<path d="M99.6743 248.749C102.392 248.749 104.596 246.548 104.596 243.833C104.596 241.118 102.392 238.916 99.6743 238.916C96.9563 238.916 94.7529 241.118 94.7529 243.833C94.7529 246.548 96.9563 248.749 99.6743 248.749Z" fill="white"/>
</g>
<path d="M487.257 32.2956H160.326C158.72 32.2972 157.181 32.9352 156.046 34.0694C154.91 35.2036 154.272 36.7415 154.27 38.3456V317.618C154.272 319.222 154.91 320.76 156.046 321.894C157.181 323.029 158.72 323.667 160.326 323.668H487.257C488.863 323.667 490.402 323.029 491.538 321.894C492.673 320.76 493.312 319.222 493.313 317.618V38.3456C493.312 36.7415 492.673 35.2036 491.538 34.0694C490.402 32.9351 488.863 32.2972 487.257 32.2956ZM490.886 317.618C490.886 318.581 490.504 319.504 489.824 320.185C489.143 320.867 488.221 321.252 487.257 321.255H160.326C159.362 321.254 158.438 320.87 157.758 320.188C157.077 319.505 156.696 318.581 156.697 317.618V38.3456C156.696 37.3825 157.077 36.4584 157.758 35.7764C158.438 35.0943 159.362 34.7103 160.326 34.7088H487.257C488.221 34.7122 489.143 35.0968 489.824 35.7785C490.504 36.4601 490.886 37.3831 490.886 38.3456V317.618Z" fill="#6EFF3A"/>
<path d="M235.79 274.011C235.79 274.442 235.779 274.872 235.756 275.291C235.427 281.594 232.688 287.53 228.106 291.874C223.524 296.219 217.447 298.641 211.129 298.641C204.811 298.641 198.735 296.219 194.152 291.874C189.57 287.53 186.831 281.594 186.502 275.291C186.479 274.872 186.468 274.442 186.468 274.011C186.466 270.774 187.102 267.569 188.341 264.578C189.579 261.588 191.395 258.87 193.685 256.581C195.976 254.291 198.695 252.475 201.688 251.236C204.681 249.997 207.889 249.359 211.129 249.359C214.369 249.359 217.577 249.997 220.57 251.236C223.563 252.475 226.283 254.291 228.573 256.581C230.863 258.87 232.679 261.588 233.918 264.578C235.156 267.569 235.792 270.774 235.79 274.011Z" fill="white"/>
<path d="M461.853 257.583H268.078C266.989 257.585 265.945 258.018 265.176 258.788C264.406 259.558 263.974 260.602 263.974 261.69C263.974 262.778 264.406 263.822 265.176 264.592C265.945 265.362 266.989 265.795 268.078 265.797H461.853C462.942 265.795 463.986 265.362 464.756 264.592C465.526 263.822 465.958 262.778 465.958 261.69C465.958 260.602 465.526 259.558 464.756 258.788C463.986 258.018 462.942 257.585 461.853 257.583V257.583Z" fill="#6EFF3A"/>
<path d="M351.458 282.225H268.078C266.989 282.225 265.945 282.657 265.175 283.426C264.405 284.195 263.973 285.238 263.973 286.326C263.973 287.414 264.405 288.457 265.175 289.226C265.945 289.995 266.989 290.427 268.078 290.427H351.458C352.547 290.427 353.591 289.995 354.361 289.226C355.131 288.457 355.564 287.414 355.564 286.326C355.564 285.238 355.131 284.195 354.361 283.426C353.591 282.657 352.547 282.225 351.458 282.225Z" fill="white"/>
<path d="M564.929 228.58H238C235.779 228.577 233.651 227.695 232.081 226.126C230.511 224.558 229.628 222.431 229.625 220.213V76.887C229.628 74.669 230.511 72.5425 232.081 70.9741C233.651 69.4057 235.78 68.5234 238 68.5208H564.929C567.149 68.5234 569.278 69.4057 570.848 70.9741C572.418 72.5425 573.301 74.669 573.303 76.887V220.213C573.301 222.431 572.418 224.558 570.848 226.126C569.278 227.695 567.149 228.577 564.929 228.58V228.58ZM238 71.4565C236.559 71.4582 235.177 72.0309 234.158 73.049C233.139 74.0671 232.566 75.4473 232.564 76.887V220.213C232.566 221.653 233.139 223.033 234.158 224.051C235.177 225.069 236.559 225.642 238 225.644H564.929C566.37 225.642 567.752 225.069 568.771 224.051C569.79 223.033 570.363 221.653 570.365 220.213V76.887C570.363 75.4473 569.79 74.0671 568.771 73.049C567.752 72.0309 566.37 71.4582 564.929 71.4565H238Z" fill="white"/>
<path d="M304.579 120.796C303.489 120.796 302.443 121.229 301.673 121.999C300.902 122.769 300.469 123.814 300.469 124.903C300.469 125.992 300.902 127.036 301.673 127.806C302.443 128.576 303.489 129.009 304.579 129.009H498.349C499.44 129.009 500.485 128.576 501.256 127.806C502.027 127.036 502.46 125.992 502.46 124.903C502.46 123.814 502.027 122.769 501.256 121.999C500.485 121.229 499.44 120.796 498.349 120.796H304.579Z" fill="white"/>
<path d="M304.579 144.588C303.489 144.588 302.443 145.021 301.673 145.791C300.902 146.561 300.469 147.606 300.469 148.695C300.469 149.784 300.902 150.828 301.673 151.598C302.443 152.368 303.489 152.801 304.579 152.801H498.35C499.439 152.799 500.482 152.366 501.252 151.596C502.021 150.826 502.453 149.782 502.453 148.695C502.453 147.607 502.021 146.563 501.252 145.793C500.482 145.023 499.439 144.59 498.35 144.588H304.579Z" fill="white"/>
<path d="M304.579 168.092C303.489 168.092 302.443 168.525 301.673 169.295C300.902 170.065 300.469 171.109 300.469 172.198C300.469 173.287 300.902 174.331 301.673 175.101C302.443 175.871 303.489 176.304 304.579 176.304H387.959C389.048 176.302 390.092 175.869 390.861 175.099C391.631 174.329 392.063 173.286 392.063 172.198C392.063 171.11 391.631 170.067 390.861 169.297C390.092 168.527 389.048 168.094 387.959 168.092H304.579Z" fill="white"/>
<path d="M618.831 289.303L585.996 243.008L596.625 245.221C596.814 245.261 597.009 245.262 597.199 245.226C597.389 245.19 597.57 245.117 597.731 245.012C597.893 244.906 598.032 244.77 598.141 244.61C598.249 244.451 598.325 244.271 598.365 244.083C598.404 243.894 598.406 243.699 598.37 243.509C598.334 243.32 598.261 243.139 598.155 242.978C598.049 242.817 597.913 242.678 597.753 242.569C597.593 242.46 597.414 242.384 597.225 242.345L581.384 239.051L579.246 255.071C579.22 255.262 579.232 255.457 579.282 255.644C579.331 255.831 579.417 256.006 579.534 256.16C579.651 256.313 579.798 256.443 579.965 256.54C580.133 256.637 580.317 256.7 580.509 256.725C580.701 256.751 580.896 256.738 581.083 256.688C581.27 256.638 581.445 256.552 581.599 256.435C581.752 256.317 581.881 256.17 581.977 256.003C582.074 255.835 582.137 255.65 582.162 255.459L583.595 244.701L616.434 291C616.546 291.157 616.687 291.291 616.85 291.394C617.014 291.496 617.196 291.566 617.386 291.598C617.576 291.631 617.771 291.625 617.959 291.583C618.147 291.54 618.325 291.46 618.482 291.349C618.64 291.238 618.774 291.096 618.876 290.933C618.979 290.77 619.049 290.588 619.081 290.398C619.114 290.208 619.108 290.014 619.065 289.826C619.022 289.638 618.943 289.46 618.831 289.303V289.303Z" fill="white"/>
<path d="M440.489 424.043H207.095C205.949 424.041 204.85 423.586 204.04 422.776C203.23 421.967 202.774 420.87 202.772 419.725V361.889C202.774 360.744 203.23 359.647 204.04 358.837C204.85 358.028 205.949 357.573 207.095 357.571H440.489C441.635 357.573 442.734 358.028 443.544 358.837C444.354 359.647 444.81 360.744 444.811 361.889V419.725C444.81 420.87 444.354 421.967 443.544 422.776C442.734 423.586 441.635 424.041 440.489 424.043V424.043ZM207.095 359.298C206.407 359.299 205.748 359.572 205.262 360.058C204.776 360.544 204.502 361.202 204.501 361.889V419.725C204.502 420.412 204.776 421.07 205.262 421.556C205.748 422.042 206.407 422.315 207.095 422.315H440.489C441.177 422.315 441.836 422.042 442.322 421.556C442.808 421.07 443.082 420.412 443.083 419.725V361.889C443.082 361.202 442.808 360.544 442.322 360.058C441.836 359.572 441.177 359.299 440.489 359.298H207.095Z" fill="#6EFF3A"/>
<path d="M243.359 406.176C253.082 406.176 260.965 398.301 260.965 388.588C260.965 378.874 253.082 371 243.359 371C233.635 371 225.753 378.874 225.753 388.588C225.753 398.301 233.635 406.176 243.359 406.176Z" fill="white"/>
<path d="M284.021 376.862C283.635 376.862 283.253 376.937 282.896 377.084C282.54 377.231 282.215 377.447 281.942 377.719C281.669 377.991 281.453 378.315 281.305 378.671C281.157 379.027 281.081 379.408 281.081 379.794C281.081 380.179 281.157 380.561 281.305 380.917C281.453 381.273 281.669 381.596 281.942 381.868C282.215 382.141 282.54 382.356 282.896 382.503C283.253 382.65 283.635 382.726 284.021 382.725H422.354C423.132 382.725 423.878 382.416 424.429 381.866C424.979 381.317 425.288 380.571 425.288 379.794C425.288 379.016 424.979 378.271 424.429 377.721C423.878 377.171 423.132 376.862 422.354 376.862H284.021Z" fill="white"/>
<path d="M284.021 394.45C283.635 394.45 283.253 394.525 282.896 394.672C282.54 394.819 282.215 395.035 281.942 395.307C281.669 395.579 281.453 395.903 281.305 396.259C281.157 396.615 281.081 396.996 281.081 397.382C281.081 397.767 281.157 398.149 281.305 398.505C281.453 398.861 281.669 399.184 281.942 399.456C282.215 399.729 282.54 399.944 282.896 400.091C283.253 400.238 283.635 400.314 284.021 400.313H343.546C344.324 400.313 345.07 400.004 345.621 399.455C346.171 398.905 346.48 398.159 346.48 397.382C346.48 396.604 346.171 395.859 345.621 395.309C345.07 394.759 344.324 394.45 343.546 394.45H284.021Z" fill="white"/>
<path d="M748.432 217.986H852.163C853.309 217.988 854.408 218.443 855.218 219.252C856.028 220.062 856.484 221.159 856.485 222.304V330.225C856.484 331.37 856.028 332.467 855.218 333.277C854.408 334.086 853.309 334.542 852.163 334.543H748.432C747.286 334.542 746.188 334.086 745.377 333.277C744.567 332.467 744.111 331.37 744.11 330.225V222.304C744.111 221.159 744.567 220.062 745.377 219.252C746.188 218.443 747.286 217.988 748.432 217.986V217.986ZM852.163 332.816C852.851 332.815 853.51 332.542 853.996 332.056C854.482 331.571 854.756 330.912 854.757 330.225V222.304C854.756 221.617 854.482 220.959 853.996 220.473C853.51 219.987 852.851 219.714 852.163 219.713H748.432C747.744 219.714 747.085 219.987 746.599 220.473C746.113 220.959 745.839 221.617 745.839 222.304V330.225C745.839 330.912 746.113 331.571 746.599 332.056C747.085 332.542 747.744 332.815 748.432 332.816H852.163Z" fill="#6EFF3A"/>
<path d="M830.06 312.288C830.838 312.288 831.585 311.979 832.135 311.429C832.685 310.879 832.994 310.134 832.994 309.356C832.994 308.579 832.685 307.833 832.135 307.283C831.585 306.734 830.838 306.425 830.06 306.425H770.535C769.757 306.425 769.01 306.734 768.46 307.283C767.91 307.833 767.601 308.579 767.601 309.356C767.601 310.134 767.91 310.879 768.46 311.429C769.01 311.979 769.757 312.288 770.535 312.288H830.06Z" fill="white"/>
<path d="M830.061 295.017C830.446 295.017 830.828 294.942 831.185 294.795C831.542 294.648 831.866 294.432 832.139 294.16C832.412 293.888 832.629 293.564 832.776 293.208C832.924 292.852 833 292.471 833 292.085C833 291.7 832.924 291.318 832.776 290.962C832.629 290.606 832.412 290.283 832.139 290.011C831.866 289.739 831.542 289.523 831.185 289.376C830.828 289.229 830.446 289.153 830.061 289.154H770.535C770.15 289.153 769.767 289.229 769.411 289.376C769.054 289.523 768.73 289.739 768.457 290.011C768.184 290.283 767.967 290.606 767.82 290.962C767.672 291.318 767.596 291.7 767.596 292.085C767.596 292.471 767.672 292.852 767.82 293.208C767.967 293.564 768.184 293.888 768.457 294.16C768.73 294.432 769.054 294.648 769.411 294.795C769.767 294.942 770.15 295.017 770.535 295.017H830.061Z" fill="white"/>
<path d="M800.297 240.242C803.95 240.242 807.522 241.324 810.559 243.351C813.596 245.379 815.964 248.26 817.362 251.632C818.76 255.004 819.125 258.713 818.413 262.293C817.7 265.872 815.941 269.16 813.358 271.74C810.775 274.321 807.484 276.078 803.901 276.79C800.318 277.502 796.604 277.136 793.229 275.74C789.854 274.343 786.969 271.978 784.94 268.944C782.91 265.91 781.827 262.342 781.827 258.693C781.833 253.801 783.78 249.111 787.243 245.652C790.706 242.193 795.4 240.247 800.297 240.242Z" fill="white"/>
</svg>
